# xmcd CD database file generated by Grip 3.3.0
# 
# Track frame offsets:
#       150
#       16705
#       34862
#       51601
#       66043
#       84055
#       104589
#       117578
#       126756
#       138509
#       146961
#       162682
#       176224
#       189852
#       197011
#       219357
# 
# Disc length: 3208 seconds
# 
# Revision: 1
# Processed by: cddbd v1.5.1PL0 Copyright (c) Steve Scherf et al.
# Submitted via: Grip 3.3.0
# 
DISCID=ef0c8610
DTITLE=Karen Wessels and Anneke Visagie - Songs Uit My Binnesak
DYEAR=2005
DGENRE=Blues
TTITLE0=Hier Waar Jy Hoort (Ft. Anneke Visagie)
TTITLE1=Engelliedjie
TTITLE2=Wintersprokie
TTITLE3=Stofpad
TTITLE4=Hoe Durf Jy
TTITLE5=Wag Nog 'n Bietjie
TTITLE6=Nagel Se Draai
TTITLE7=Die Warm Sand Tango
TTITLE8=Wiegeliedjie (Ft. Karen Wessels and Anneke Visagie)
TTITLE9=Onthou Jy Nog?
TTITLE10=Genadewater
TTITLE11=Buite Val Die Reen (Ft. Karen Wessels and Anneke Visagie)
TTITLE12=Blou Blou Water
TTITLE13=Nagliedjie (Ft. Karen Wessels and Anneke Visagie)
TTITLE14=Ballade Vir 'n Vreemdeling
TTITLE15=Anthem
EXTD=
EXTT0=
EXTT1=
EXTT2=
EXTT3=
EXTT4=
EXTT5=
EXTT6=
EXTT7=
EXTT8=
EXTT9=
EXTT10=
EXTT11=
EXTT12=
EXTT13=
EXTT14=
EXTT15=
PLAYORDER=
